<svg width="15.004" height="15" version="1.1" xmlns="http://www.w3.org/2000/svg" xmlns:xlink="http://www.w3.org/1999/xlink">
 <defs>
  <radialGradient id="c" cx="158.43" cy="578.09" r="65" gradientTransform="matrix(0 -.22871 .21278 0 -119.02 52.39)" gradientUnits="userSpaceOnUse">
   <stop stop-color="#fd5" offset="0"/>
   <stop stop-color="#fd5" offset=".1"/>
   <stop stop-color="#ff543e" offset=".5"/>
   <stop stop-color="#c837ab" offset="1"/>
  </radialGradient>
  <radialGradient id="d" cx="147.69" cy="473.45" r="65" gradientTransform="matrix(.020072 .10025 -.41332 .082759 190.21 -52.908)" gradientUnits="userSpaceOnUse">
   <stop stop-color="#3771c8" offset="0"/>
   <stop stop-color="#3771c8" offset=".128"/>
   <stop stop-color="#60f" stop-opacity="0" offset="1"/>
  </radialGradient>
 </defs>
 <g stroke-width=".1154">
  <path d="m7.5045 0c-3.132 0-4.048 0.0032252-4.2261 0.018002-0.64275 0.053427-1.0427 0.15463-1.4784 0.37157-0.3358 0.16674-0.60063 0.36003-0.862 0.63098-0.476 0.49412-0.76449 1.102-0.86892 1.8246-0.050773 0.3508-0.065544 0.42234-0.068544 2.2142-0.00118 0.59728 0 1.3833 0 2.4377 0 3.1295 0.0034612 4.0446 0.018462 4.2223 0.051928 0.62544 0.15001 1.0189 0.35772 1.4494 0.39696 0.82392 1.1551 1.4424 2.0483 1.6732 0.30926 0.07962 0.65082 0.12347 1.0893 0.14424 0.18578 0.008102 2.0794 0.013844 3.9742 0.013844 1.8948 0 3.7896-0.0023 3.9707-0.01154 0.50774-0.02389 0.80257-0.06347 1.1286-0.14771 0.89892-0.23194 1.6432-0.84122 2.0483-1.6767 0.20367-0.42004 0.30695-0.82853 0.35368-1.4213 0.01016-0.12923 0.01442-2.1898 0.01442-4.2477 0-2.0582-0.0046-4.115-0.01477-4.2442-0.047308-0.60236-0.15059-1.0074-0.36084-1.4355-0.17251-0.35045-0.36407-0.61217-0.64217-0.87977-0.49631-0.47404-1.1033-0.76253-1.8266-0.86684-0.35045-0.050658-0.42026-0.065659-2.2135-0.068775z" fill="url(#c)"/>
  <path d="m7.5045 0c-3.132 0-4.048 0.0032252-4.2261 0.018002-0.64275 0.053427-1.0427 0.15463-1.4784 0.37157-0.3358 0.16674-0.60063 0.36003-0.862 0.63098-0.476 0.49412-0.76449 1.102-0.86892 1.8246-0.050773 0.3508-0.065544 0.42234-0.068544 2.2142-0.00118 0.59728 0 1.3833 0 2.4377 0 3.1295 0.0034612 4.0446 0.018462 4.2223 0.051928 0.62544 0.15001 1.0189 0.35772 1.4494 0.39696 0.82392 1.1551 1.4424 2.0483 1.6732 0.30926 0.07962 0.65082 0.12347 1.0893 0.14424 0.18578 0.008102 2.0794 0.013844 3.9742 0.013844 1.8948 0 3.7896-0.0023 3.9707-0.01154 0.50774-0.02389 0.80257-0.06347 1.1286-0.14771 0.89892-0.23194 1.6432-0.84122 2.0483-1.6767 0.20367-0.42004 0.30695-0.82853 0.35368-1.4213 0.01016-0.12923 0.01442-2.1898 0.01442-4.2477 0-2.0582-0.0046-4.115-0.01477-4.2442-0.047308-0.60236-0.15059-1.0074-0.36084-1.4355-0.17251-0.35045-0.36407-0.61217-0.64217-0.87977-0.49631-0.47404-1.1033-0.76253-1.8266-0.86684-0.35045-0.050658-0.42026-0.065659-2.2135-0.068775z" fill="url(#d)"/>
  <path d="m7.501 1.9617c-1.5043 0-1.6931 0.00657-2.2839 0.033464-0.58967 0.027001-0.99216 0.12036-1.3443 0.25733-0.3643 0.14147-0.67333 0.33072-0.9812 0.63871-0.3081 0.30787-0.49735 0.6169-0.63929 0.98108-0.13732 0.3523-0.23079 0.75491-0.25733 1.3443-0.026427 0.59082-0.033349 0.77972-0.033349 2.284 0 1.5043 0.00669 1.6925 0.033463 2.2833 0.027115 0.58966 0.12047 0.99216 0.25733 1.3443 0.14159 0.3643 0.33084 0.67333 0.63882 0.9812 0.30776 0.3081 0.61678 0.49781 0.98085 0.63928 0.35241 0.13697 0.75503 0.23033 1.3446 0.25733 0.59082 0.02689 0.77949 0.03347 2.2837 0.03347 1.5044 0 1.6926-0.0066 2.2834-0.03347 0.58966-0.027 0.99262-0.12036 1.345-0.25733 0.36418-0.14147 0.67275-0.33118 0.98051-0.63928 0.3081-0.30787 0.49735-0.6169 0.63928-0.98108 0.13617-0.3523 0.22964-0.75491 0.25733-1.3443 0.02654-0.59082 0.03347-0.77914 0.03347-2.2834 0-1.5043-0.0069-1.6931-0.03347-2.2839-0.027694-0.58967-0.12116-0.99216-0.25733-1.3443-0.14193-0.3643-0.33118-0.67333-0.63928-0.9812-0.3081-0.3081-0.61621-0.49735-0.98085-0.63871-0.35311-0.13697-0.75583-0.23033-1.3455-0.25733-0.59082-0.026887-0.77891-0.033464-2.2837-0.033464zm-0.49689 0.99816c0.14747-2.233e-4 0.31203 0 0.49689 0 1.4789 0 1.6542 0.0053 2.2382 0.031847 0.54005 0.024693 0.83315 0.11493 1.0284 0.19075 0.25848 0.10039 0.44277 0.2204 0.63652 0.41427 0.19386 0.19386 0.31387 0.37849 0.4145 0.63698 0.07581 0.19502 0.16617 0.48812 0.19075 1.0282 0.02654 0.5839 0.03231 0.7593 0.03231 2.2375 0 1.4782-0.0058 1.6536-0.03231 2.2375-0.0247 0.54005-0.11493 0.83315-0.19075 1.0282-0.10039 0.25848-0.22063 0.44254-0.4145 0.63628-0.19386 0.19386-0.37792 0.31387-0.63652 0.41426-0.19502 0.07616-0.48835 0.16617-1.0284 0.19086-0.5839 0.02654-0.7593 0.03231-2.2382 0.03231-1.479 0-1.6543-0.0058-2.2382-0.03231-0.54005-0.024927-0.83315-0.11516-1.0285-0.19098-0.25848-0.10039-0.44311-0.2204-0.63698-0.41426-0.19386-0.19386-0.31387-0.37803-0.4145-0.63663-0.075814-0.19502-0.16617-0.48812-0.19075-1.0282-0.026541-0.5839-0.031851-0.7593-0.031851-2.2384s0.0053-1.6536 0.031851-2.2375c0.024693-0.54005 0.11493-0.83315 0.19075-1.0284 0.10039-0.25848 0.22063-0.44311 0.4145-0.63698 0.19386-0.19386 0.37849-0.31387 0.63698-0.4145 0.19525-0.07616 0.48846-0.16617 1.0285-0.19098 0.51097-0.02308 0.70898-0.030002 1.7413-0.031155zm3.4535 0.91969c-0.36695 0-0.66467 0.29737-0.66467 0.66444 0 0.36695 0.29772 0.66467 0.66467 0.66467s0.66467-0.29772 0.66467-0.66467c0-0.36695-0.29772-0.66467-0.66467-0.66467zm-2.9566 0.7766c-1.5709 0-2.8445 1.2736-2.8445 2.8445 0 1.5709 1.2736 2.8439 2.8445 2.8439 1.5709 0 2.844-1.273 2.844-2.8439 0-1.5709-1.2733-2.8445-2.8441-2.8445zm0 0.99816c1.0196 0 1.8463 0.82657 1.8463 1.8463 0 1.0196-0.82669 1.8463-1.8463 1.8463-1.0197 0-1.8463-0.82669-1.8463-1.8463 0-1.0197 0.82657-1.8463 1.8463-1.8463z" fill="#fff"/>
 </g>
</svg>
