<svg width="14.932" height="15" version="1.1" viewBox="0 0 3.9507 3.9688" xmlns="http://www.w3.org/2000/svg">
 <defs>
  <clipPath>
   <rect width="642" height="134"/>
  </clipPath>
  <clipPath>
   <rect width="212" height="212"/>
  </clipPath>
  <clipPath>
   <rect width="212" height="212"/>
  </clipPath>
  <clipPath>
   <rect width="119" height="112"/>
  </clipPath>
  <linearGradient id="linearGradient2628" x2="1" gradientTransform="matrix(0 -11.018 11.018 0 9.3302 12.819)" gradientUnits="userSpaceOnUse">
   <stop stop-color="#20b038" offset="0"/>
   <stop stop-color="#60d66a" offset="1"/>
  </linearGradient>
  <linearGradient id="linearGradient2630" x2="1" gradientTransform="matrix(0 -11.413 11.413 0 9.3302 13.017)" gradientUnits="userSpaceOnUse">
   <stop stop-color="#f9f9f9" offset="0"/>
   <stop stop-color="#fff" offset="1"/>
  </linearGradient>
 </defs>
 <g transform="matrix(.34772 0 0 .34772 -1.2689 -.55751)" stroke-width=".16307">
  <path d="m6.7872 11.206 0.17177 0.10182c0.72178 0.42834 1.5493 0.65487 2.3932 0.65533h0.00184c2.5916 0 4.7009-2.1088 4.7018-4.7005 4.08e-4 -1.2561-0.48817-2.437-1.3759-3.3256-0.8878-0.88838-2.0682-1.378-3.3243-1.3785-2.5936 0-4.7028 2.1084-4.7038 4.7002-3.424e-4 0.88814 0.2481 1.7531 0.71884 2.5014l0.11189 0.17787-0.47511 1.7345zm-3.1379 1.8102 0.80255-2.9305c-0.49502-0.85766-0.75544-1.8306-0.75503-2.8272 0.00121-3.1181 2.5388-5.655 5.6572-5.655 1.5132 6.523e-4 2.9336 0.58958 4.0016 1.6585 1.068 1.0689 1.6559 2.4899 1.6554 4.001-0.0013 3.118-2.5394 5.6553-5.6571 5.6553-2.3e-4 0 1.15e-4 0 0 0h-0.00242c-0.94676-3.26e-4 -1.877-0.23782-2.7033-0.68846z" fill="#fff"/>
  <path d="m3.8918 7.2613c-3.424e-4 0.96207 0.25104 1.9013 0.72904 2.7294l-0.77482 2.829 2.8951-0.75912c0.79765 0.43467 1.6957 0.66414 2.6097 0.66443h0.00236c3.0099 0 5.4598-2.4493 5.4611-5.4594 5.7e-4 -1.4588-0.56698-2.8303-1.5981-3.8624-1.031-1.0319-2.4021-1.6005-3.8632-1.6012-3.01 0-5.4599 2.4489-5.4612 5.4593m5.4614 5.4637h5.75e-5 -5.75e-5c-5.75e-5 0-1.151e-4 0 0 0" fill="url(#linearGradient2628)"/>
  <path d="m3.6968 7.2596c-3.424e-4 0.99664 0.26007 1.9697 0.75509 2.8272l-0.80261 2.9303 2.9989-0.78632c0.8263 0.4506 1.7565 0.68807 2.7033 0.68846h0.00242c3.1177 0 5.6558-2.5373 5.6571-5.6553 5.18e-4 -1.5112-0.58747-2.9321-1.6554-4.001-1.0681-1.0689-2.4884-1.6579-4.0016-1.6585-3.1183 0-5.6559 2.5368-5.6572 5.655m1.7859 2.6797-0.11195-0.17781c-0.47074-0.74841-0.71919-1.6134-0.71884-2.5014 0.0010273-2.5916 2.1102-4.7002 4.7038-4.7002 1.256 4.892e-4 2.4364 0.49013 3.3243 1.3785 0.8878 0.88843 1.3763 2.0695 1.376 3.3254-0.0012 2.5918-2.1104 4.7005-4.702 4.7005h-0.00184c-0.84385-4.89e-4 -1.6714-0.227-2.3932-0.65528l-0.17177-0.10182-1.7797 0.4666zm3.8713 2.9802h5.75e-5 -5.75e-5c-5.76e-5 0-1.151e-4 0 0 0" fill="url(#linearGradient2630)"/>
  <path d="m7.9401 4.8952c-0.1059-0.2354-0.21733-0.24011-0.31806-0.24426-0.082435-0.00351-0.17671-0.00328-0.27089-0.00328-0.094285 0-0.24742 0.035379-0.37691 0.17683-0.12961 0.14146-0.49477 0.48339-0.49477 1.1788 0 0.69549 0.50658 1.3675 0.57716 1.4619 0.070699 0.094228 0.97789 1.567 2.4145 2.1336 1.1941 0.47085 1.4371 0.3772 1.6962 0.35361 0.25916-0.023526 0.83632-0.34182 0.95407-0.67189 0.11781-0.33003 0.11781-0.61293 0.082492-0.67201-0.035322-0.058908-0.12961-0.094286-0.27095-0.16492-0.1414-0.070699-0.83632-0.41269-0.96586-0.45986-0.12961-0.047115-0.22384-0.070644-0.31813 0.070872-0.09423 0.14134-0.36494 0.45963-0.44744 0.55392-0.08244 0.094458-0.16492 0.10625-0.30627 0.03555-0.1414-0.070929-0.59666-0.22004-1.1367-0.70153-0.42022-0.37466-0.70389-0.83734-0.78639-0.97887-0.082435-0.14134-0.0088007-0.2179 0.062071-0.28838 0.063509-0.063336 0.1414-0.16504 0.2121-0.24753 0.070526-0.082549 0.094055-0.14146 0.14117-0.23574 0.047172-0.094343 0.023586-0.17689-0.011736-0.2476-0.035379-0.070699-0.31007-0.7697-0.43576-1.0492" fill="#fff" fill-rule="evenodd"/>
 </g>
</svg>
